<svg width="48" height="48" viewBox="0 0 48 48" fill="none" xmlns="http://www.w3.org/2000/svg">
<rect width="48" height="48" rx="24" fill="currentColor"/>
<path d="M31.5047 11.4549C26.9309 10.5814 22.1812 10.5814 17.6073 11.4549C15.5843 11.8916 13.0335 14.3373 12.5937 16.2589C11.8021 20.0148 11.8021 23.8581 12.5937 27.6139C13.1215 29.5356 15.6722 31.9813 17.6073 32.418C17.6953 32.418 17.7832 32.5053 17.7832 32.5927V38.0955C17.7832 38.3575 18.1351 38.5322 18.311 38.2702L20.9497 35.5625C20.9497 35.5625 23.0607 33.3788 23.4126 33.0294C23.4126 33.0294 23.5005 32.9421 23.5885 32.9421C26.2272 33.0294 28.9539 32.7674 31.5927 32.3306C33.6157 31.8939 36.1665 29.4482 36.6063 27.5266C37.3979 23.7707 37.3979 19.9275 36.6063 16.1716C36.0785 14.3373 33.5278 11.8916 31.5047 11.4549ZM31.5927 27.876C31.1529 28.7495 30.6251 29.4482 29.7456 29.885C29.4817 29.9723 29.2178 30.0596 28.9539 30.147C28.6021 30.0596 28.3382 29.9723 28.0743 29.885C25.2597 28.7494 22.6209 27.1772 20.5099 24.9062C19.3665 23.596 18.399 22.1111 17.6073 20.5389C17.2555 19.7528 16.9037 19.054 16.6398 18.2679C16.3759 17.5691 16.8157 16.8704 17.2555 16.3463C17.6953 15.8222 18.223 15.4728 18.8387 15.2108C19.2785 14.9487 19.7183 15.1234 20.0702 15.4728C20.7738 16.3463 21.4775 17.2197 22.0052 18.1806C22.3571 18.792 22.2691 19.4908 21.6534 19.9275C21.4775 20.0148 21.3895 20.1022 21.2136 20.2769C21.1257 20.3642 20.9497 20.4516 20.8618 20.6263C20.6859 20.8883 20.6859 21.1503 20.7738 21.4124C21.4775 23.4213 22.7969 24.9936 24.8199 25.867C25.1717 26.0417 25.4356 26.1291 25.8754 26.1291C26.4911 26.0417 26.755 25.3429 27.1948 24.9936C27.6346 24.6442 28.1623 24.6442 28.6901 24.9062C29.1298 25.1683 29.5696 25.5176 30.0974 25.867C30.5372 26.2164 30.977 26.4784 31.4168 26.8278C31.6806 27.0025 31.7686 27.4393 31.5927 27.876ZM27.8984 21.325C27.7225 21.325 27.8105 21.325 27.8984 21.325C27.5466 21.325 27.4586 21.1503 27.3707 20.8883C27.3707 20.7136 27.3707 20.4516 27.2827 20.2769C27.1948 19.9275 27.0189 19.5781 26.667 19.3161C26.4911 19.2287 26.3152 19.1414 26.1393 19.054C25.8754 18.9667 25.6995 18.9667 25.4356 18.9667C25.1717 18.8793 25.0838 18.7046 25.0838 18.4426C25.0838 18.2679 25.3476 18.0932 25.5236 18.0932C26.9309 18.1806 27.9864 18.9667 28.1623 20.6263C28.1623 20.7136 28.1623 20.8883 28.1623 20.9756C28.1623 21.1503 28.0743 21.325 27.8984 21.325ZM27.0188 17.4818C26.5791 17.3071 26.1393 17.1324 25.6115 17.0451C25.4356 17.0451 25.1717 16.9577 24.9958 16.9577C24.7319 16.9577 24.556 16.783 24.644 16.521C24.644 16.2589 24.8199 16.0842 25.0838 16.1716C25.9634 16.2589 26.755 16.4336 27.5466 16.783C29.1298 17.5691 30.0094 18.8793 30.2733 20.6263C30.2733 20.7136 30.2733 20.8009 30.2733 20.8883C30.2733 21.063 30.2733 21.2377 30.2733 21.4997C30.2733 21.5871 30.2733 21.6744 30.2733 21.7618C30.1853 22.1111 29.5696 22.1985 29.4817 21.7618C29.4817 21.6744 29.3937 21.4997 29.3937 21.4124C29.3937 20.6263 29.2178 19.8401 28.866 19.1414C28.3382 18.3553 27.7225 17.8312 27.0188 17.4818ZM31.7686 22.7226C31.5047 22.7226 31.3288 22.4605 31.3288 22.1985C31.3288 21.6744 31.2408 21.1503 31.1529 20.6263C30.801 17.8312 28.5141 15.5602 25.7874 15.1234C25.3476 15.0361 24.9079 15.0361 24.556 14.9487C24.2921 14.9487 23.9403 14.9487 23.8524 14.5994C23.7644 14.3373 24.0283 14.0753 24.2921 14.0753C24.3801 14.0753 24.4681 14.0753 24.4681 14.0753C24.644 14.0753 28.0743 14.1626 24.4681 14.0753C28.1623 14.1626 31.2408 16.6083 31.8565 20.2769C31.9445 20.8883 32.0325 21.4997 32.0325 22.1985C32.2084 22.4605 32.0325 22.7226 31.7686 22.7226Z" fill="#EBEFE9"/>
</svg>
