<svg width="45" height="45" viewBox="0 0 45 45" fill="none" xmlns="http://www.w3.org/2000/svg">
<g id="truck">
<path id="Vector" d="M18.7505 31.875H26.2505V9.375H3.75049V31.875H9.37549" stroke="white" stroke-linecap="round" stroke-linejoin="round"/>
<path id="Vector_2" d="M37.4995 31.876H41.2495V25.6135C41.2503 24.6283 41.0569 23.6526 40.6805 22.7421C40.3041 21.8316 39.752 21.0043 39.0558 20.3072L35.6245 16.876H26.2495" stroke="white" stroke-linecap="round" stroke-linejoin="round"/>
<path id="Vector_3" d="M26.2495 31.875H28.1245" stroke="white" stroke-linecap="round" stroke-linejoin="round"/>
<path id="Vector_4" d="M14.0625 37.5C16.6513 37.5 18.75 35.4013 18.75 32.8125C18.75 30.2237 16.6513 28.125 14.0625 28.125C11.4737 28.125 9.375 30.2237 9.375 32.8125C9.375 35.4013 11.4737 37.5 14.0625 37.5Z" stroke="white" stroke-linecap="round" stroke-linejoin="round"/>
<path id="Vector_5" d="M32.812 37.5C35.4008 37.5 37.4995 35.4013 37.4995 32.8125C37.4995 30.2237 35.4008 28.125 32.812 28.125C30.2232 28.125 28.1245 30.2237 28.1245 32.8125C28.1245 35.4013 30.2232 37.5 32.812 37.5Z" stroke="white" stroke-linecap="round" stroke-linejoin="round"/>
</g>
</svg>
