<svg width="41" height="41" viewBox="0 0 41 41" fill="none" xmlns="http://www.w3.org/2000/svg">
<g id="clipboard-signature">
<path id="Vector" d="M25.6248 3.41699H15.3748C14.4314 3.41699 13.6665 4.18184 13.6665 5.12533V8.54199C13.6665 9.48548 14.4314 10.2503 15.3748 10.2503H25.6248C26.5683 10.2503 27.3332 9.48548 27.3332 8.54199V5.12533C27.3332 4.18184 26.5683 3.41699 25.6248 3.41699Z" stroke="white" stroke-linecap="round" stroke-linejoin="round"/>
<path id="Vector_2" d="M13.6673 6.83301H10.2507C9.34449 6.83301 8.47545 7.19298 7.8347 7.83373C7.19395 8.47448 6.83398 9.34352 6.83398 10.2497V34.1663C6.83398 35.0725 7.19395 35.9415 7.8347 36.5823C8.47545 37.223 9.34449 37.583 10.2507 37.583H30.7507C31.6568 37.583 32.5258 37.223 33.1666 36.5823C33.8073 35.9415 34.1673 35.0725 34.1673 34.1663V33.3122" stroke="white" stroke-linecap="round" stroke-linejoin="round"/>
<path id="Vector_3" d="M27.333 6.83301H30.7497C31.3488 6.83362 31.9373 6.99179 32.456 7.29163C32.9747 7.59147 33.4055 8.02246 33.7051 8.54134" stroke="white" stroke-linecap="round" stroke-linejoin="round"/>
<path id="Vector_4" d="M31.4672 16.417C31.8003 16.0839 32.1958 15.8196 32.6311 15.6393C33.0664 15.459 33.5329 15.3662 34.0041 15.3662C34.4752 15.3662 34.9417 15.459 35.377 15.6393C35.8123 15.8196 36.2078 16.0839 36.5409 16.417C36.8741 16.7502 37.1383 17.1457 37.3186 17.5809C37.4989 18.0162 37.5917 18.4828 37.5917 18.9539C37.5917 19.425 37.4989 19.8916 37.3186 20.3268C37.1383 20.7621 36.8741 21.1576 36.5409 21.4908L28.9559 29.0416L22.208 30.7499L23.8993 24.002L31.4672 16.417Z" stroke="white" stroke-linecap="round" stroke-linejoin="round"/>
<path id="Vector_5" d="M13.6665 30.751H15.3748" stroke="white" stroke-linecap="round" stroke-linejoin="round"/>
</g>
</svg>
