<svg width="40" height="40" viewBox="0 0 40 40" fill="none" xmlns="http://www.w3.org/2000/svg">
<g id="file-badge-2">
<path id="Vector" d="M24.1675 3.33398H10.0008C9.11676 3.33398 8.26891 3.68517 7.64379 4.31029C7.01867 4.93542 6.66748 5.78326 6.66748 6.66732V33.334C6.66748 34.218 7.01867 35.0659 7.64379 35.691C8.26891 36.3161 9.11676 36.6673 10.0008 36.6673H30.0008C30.8849 36.6673 31.7327 36.3161 32.3578 35.691C32.983 35.0659 33.3341 34.218 33.3341 33.334V12.5007L24.1675 3.33398Z" stroke="white" stroke-linecap="round" stroke-linejoin="round"/>
<path id="Vector_2" d="M20 21.666C21.3261 21.666 22.5979 21.1392 23.5355 20.2016C24.4732 19.2639 25 17.9921 25 16.666C25 15.3399 24.4732 14.0682 23.5355 13.1305C22.5979 12.1928 21.3261 11.666 20 11.666C18.6739 11.666 17.4021 12.1928 16.4645 13.1305C15.5268 14.0682 15 15.3399 15 16.666C15 17.9921 15.5268 19.2639 16.4645 20.2016C17.4021 21.1392 18.6739 21.666 20 21.666V21.666Z" stroke="white" stroke-linecap="round" stroke-linejoin="round"/>
<path id="Vector_3" d="M23.3333 20.835L25 30.0016L20 28.335L15 30.0016L16.6667 20.835" stroke="white" stroke-linecap="round" stroke-linejoin="round"/>
</g>
</svg>
