<svg width="240" height="39" viewBox="0 0 240 39" fill="none" xmlns="http://www.w3.org/2000/svg">
<g id="Logo">
<path id="Vector" d="M29.748 2.74417L29.2913 2.92392L28.1639 3.2973L26.3254 3.81157L21.3618 4.97308L14.5337 6.55397L12.5767 7.12042L11.5967 7.46715L10.9727 7.73596L10.5238 7.9801L10.2116 8.22271L10.3101 8.31429L10.539 8.475L10.878 8.66301L11.4643 8.92565L12.4047 9.26864L13.795 9.69067L16.298 10.3324L27.447 12.9374L28.8887 13.3808L29.9037 13.7582L30.0849 13.8352C30.4594 13.9944 30.6327 14.4246 30.4719 14.7955C30.3519 15.0727 30.0795 15.2384 29.7934 15.2384C29.6962 15.2384 29.5975 15.2195 29.5025 15.179L28.8069 14.9034L27.759 14.5549L25.9917 14.0593L21.4178 12.9835L14.2018 11.3171L12.3947 10.8031L11.2944 10.4302L10.5418 10.1241L10.0549 9.88682L9.60654 9.6178L9.23792 9.32654L9.02751 9.10001L8.85364 8.83473L8.73632 8.52542L8.69733 8.23614L8.7391 7.90085L8.87797 7.56622L9.05028 7.31745L9.25337 7.10479L9.48467 6.91436L9.88317 6.65436L10.3303 6.41924L11.054 6.10707L11.8912 5.80502L13.3465 5.36076L15.9018 4.70339L27.0051 2.11201L27.968 1.81282C25.4487 0.652084 22.6424 0 19.681 0C8.81153 0 0 8.73037 0 19.5C0 30.2695 8.81153 39 19.681 39C22.8885 39 25.9138 38.235 28.5893 36.8865L27.759 36.6103L25.9917 36.1147L21.4178 35.0388L14.2024 33.373L12.3947 32.8587L11.2951 32.486L10.5424 32.1802L10.0549 31.9422L9.60654 31.6734L9.23792 31.3819L9.02817 31.1563L8.85364 30.8901L8.73632 30.5806L8.69733 30.2915L8.7391 29.9562L8.87853 29.6207L9.04884 29.3746L9.25337 29.1602L9.48556 28.9691L9.88406 28.7093L10.3303 28.4746L10.8623 28.2395L11.6708 27.9355L12.8364 27.5634L14.7186 27.05L27.4942 24.0258L28.7845 23.6056L29.4789 23.3324C29.8542 23.1741 30.2874 23.348 30.4466 23.7196C30.606 24.0914 30.4309 24.5207 30.0557 24.6784L29.2906 24.9795L28.1639 25.3527L26.3254 25.867L21.3618 27.0285L14.5342 28.6096L12.7964 29.1056L11.5967 29.5228L10.9727 29.7913L10.5242 30.0351L10.2115 30.2779L10.3106 30.3701L10.5386 30.5302L10.878 30.7184L11.4643 30.981L12.4047 31.324L13.795 31.7461L16.298 32.3878L27.4465 34.9926L28.8881 35.436L29.9037 35.8135L30.0856 35.891C30.1337 35.9116 30.1781 35.9368 30.2192 35.9655C35.7132 32.5063 39.362 26.4272 39.362 19.5C39.362 12.3759 35.5045 6.14681 29.748 2.74417ZM29.7833 4.85387L27.9708 5.36373L24.006 6.30642L15.9078 8.17813L15.3852 8.32123C15.341 8.33333 15.2965 8.33928 15.2526 8.33928C15.0374 8.33928 14.8398 8.19816 14.779 7.98286C14.7059 7.72352 14.8589 7.4545 15.1206 7.38207L17.6747 6.72822L28.7727 4.13508L29.4955 3.92131C29.7552 3.84272 30.0305 3.98779 30.1099 4.24493C30.1895 4.50251 30.0431 4.77505 29.7833 4.85387ZM30.3245 19.3617L30.1996 19.7076L30.0356 19.9643L29.8381 20.1833L29.6115 20.378L29.2217 20.6413L28.7841 20.8773L28.2603 21.1141L27.4627 21.4188L26.3111 21.7911L24.4442 22.3049L11.4128 25.4009L10.1511 25.8198L9.63298 26.0248C9.54 26.0633 9.44356 26.0814 9.3488 26.0814C9.05995 26.0814 8.78576 25.9125 8.66744 25.6321C8.51035 25.2593 8.68777 24.8309 9.06395 24.6753L9.83985 24.375L10.9824 24.0018L12.8362 23.488L18.1452 22.2547L24.3511 20.8176L26.3405 20.2505L27.5214 19.8342L28.1284 19.5671L28.5595 19.3263L28.8362 19.1061L28.7133 18.995L28.4707 18.8303L28.1176 18.6399L27.5165 18.3764L26.5586 18.0323L25.1512 17.6098L22.3258 16.8961L11.7572 14.4352L10.0722 13.9185L9.07161 13.5403C8.69522 13.3851 8.51702 12.9571 8.67355 12.5842C8.83009 12.2115 9.26225 12.0356 9.63843 12.1899L10.3564 12.4671L11.4273 12.816L13.221 13.312L26.3144 16.4221L27.6718 16.8685L28.4355 17.1732L28.9324 17.4101L29.3873 17.675L29.7647 17.9612L29.9811 18.1809L30.1626 18.4367L30.2942 18.7392L30.3482 19.0236L30.3245 19.3617ZM30.6017 34.3197C30.5368 34.5293 30.342 34.6643 30.1315 34.6643C30.0837 34.6643 30.0351 34.6572 29.987 34.6427L28.2106 34.1427L23.9578 33.1364L16.4202 31.4005L15.613 31.1821C15.3512 31.1099 15.1981 30.8411 15.271 30.5818C15.3439 30.3225 15.6153 30.1692 15.877 30.243L18.3987 30.8882L29.2737 33.418L30.2757 33.7106C30.5355 33.7896 30.6814 34.0621 30.6017 34.3197Z" fill="#1E321B"/>
<g id="Group">
<path id="Vector_2" d="M44.9756 17.4197L47.6417 14.2645C49.4041 15.8641 51.626 16.9794 53.9515 16.9794C55.7583 16.9794 57.7728 16.2457 57.7728 14.6314C57.7728 12.6649 54.7068 12.4154 51.5816 11.7697C48.0267 11.0359 45.183 9.56834 45.183 6.19302C45.183 2.74429 47.8935 0 52.7368 0C55.4177 0 58.217 0.8952 60.5721 2.72962L58.0543 5.85548C56.6471 4.68144 54.5882 3.97702 52.6775 3.97702C51.1224 3.97702 49.4783 4.53468 49.4783 5.79678C49.4783 7.17627 51.2261 7.5725 54.2328 8.07145C57.8023 8.65848 62.1274 9.84717 62.1274 14.6167C62.1274 18.3296 58.5874 21.0592 54.0254 21.0592C51.1963 21.0592 47.923 20.0319 44.9756 17.4197ZM69.3555 8.55575H74.747C75.5911 8.55575 75.991 8.49706 76.3614 8.35028C77.1909 8.01276 77.8574 7.33769 77.8574 6.3251C77.8574 5.34183 77.2204 4.63742 76.3614 4.2999C76.0059 4.15315 75.606 4.07976 74.7321 4.07976H69.3555V8.55575ZM69.3555 21.0592H64.9267V0.0293505H75.3245C77.1316 0.0293505 78.3758 0.366885 79.3978 1.0126C81.1158 2.06923 82.2269 3.933 82.2269 6.3251C82.2269 8.62911 81.1158 10.5222 79.368 11.6082C78.3609 12.2393 77.1316 12.5915 75.3245 12.5915H69.3555V21.0592ZM89.3215 21.0592H84.8927V0.0293505H95.2759C97.0827 0.0293505 98.327 0.366885 99.3489 1.0126C101.067 2.05455 102.178 3.91833 102.178 6.3251C102.178 7.68991 101.793 8.92264 101.097 9.92056C100.356 10.9919 99.3638 11.6669 98.2382 12.0485L98.0457 12.1219L103.437 21.0592H98.3419L93.3207 12.5621H89.3215V21.0592ZM89.3215 8.54108H94.6982C95.5425 8.54108 95.9424 8.49706 96.3128 8.33561C97.142 7.99809 97.8085 7.32302 97.8085 6.3251C97.8085 5.34183 97.1718 4.63742 96.3128 4.2999C95.957 4.13845 95.5572 4.07976 94.6833 4.07976H89.3215V8.54108ZM105.777 21.0592V0.0146752H110.221V21.0592H105.777ZM118.648 21.0592H114.22V0.0146752H116.634L129.239 13.3399V0.0146752H133.668V21.0592H131.253L118.648 7.7486V21.0592ZM153.752 1.81975L151.249 5.20975C150.153 4.4026 148.894 3.97702 147.472 3.97702C143.725 3.97702 141.162 6.85339 141.162 10.5369C141.162 14.0443 143.665 17.0381 147.472 17.0381C150.553 17.0381 153.16 15.1156 153.767 11.5642H147.102V7.51379H157.84C158.122 8.46769 158.255 9.49498 158.255 10.5369C158.255 16.4511 153.589 21.0592 147.472 21.0592C141.592 21.0592 136.645 16.6566 136.645 10.5369C136.645 4.63742 141.34 0 147.472 0C149.797 0 151.945 0.601691 153.752 1.81975Z" fill="#307A32"/>
<path id="Vector_3" d="M160.136 0.0146752H178.547V4.07976H171.556V21.0592H167.112V4.07976H160.136V0.0146752ZM181.465 0.0146752H196.409V4.06508H185.908V7.52846H193.921V11.5349H185.908V17.0088H196.409V21.0592H181.465V0.0146752ZM218.849 7.23496L214.657 8.58509C213.769 5.7234 211.577 4.00637 208.585 4.00637C204.867 4.00637 202.319 6.85339 202.319 10.5369C202.319 14.0443 204.808 17.0381 208.585 17.0381C211.562 17.0381 213.754 15.3505 214.672 12.386L218.894 13.6775C217.62 18.0947 213.443 21.0592 208.585 21.0592C202.675 21.0592 197.757 16.5538 197.757 10.5369C197.757 4.63742 202.453 0 208.585 0C213.28 0 217.427 2.55352 218.849 7.23496ZM235.557 0.0146752H240V21.0592H235.557V11.5642H226.033V21.0592H221.604V0.0146752H226.033V7.49912H235.557V0.0146752Z" fill="#1E321B"/>
<path id="Vector_4" d="M172.353 25.2487L170.566 27.6698C169.783 27.0935 168.884 26.7894 167.868 26.7894C165.192 26.7894 163.362 28.844 163.362 31.4747C163.362 33.9795 165.15 36.1178 167.868 36.1178C170.069 36.1178 171.93 34.7446 172.364 32.2082H167.604V29.3155H175.273C175.474 29.9968 175.569 30.7303 175.569 31.4747C175.569 35.6984 172.237 38.9895 167.868 38.9895C163.669 38.9895 160.136 35.8453 160.136 31.4747C160.136 27.2614 163.489 23.9492 167.868 23.9492C169.529 23.9492 171.063 24.379 172.353 25.2487ZM181.508 38.9895H178.345V23.9702H185.761C187.052 23.9702 187.94 24.2112 188.67 24.6725C189.897 25.4166 190.69 26.7476 190.69 28.4664C190.69 29.4412 190.415 30.3215 189.918 31.0344C189.389 31.7994 188.68 32.2816 187.876 32.5541L187.739 32.6067L191.59 38.9895H187.951L184.365 32.9211H181.508V38.9895ZM181.508 30.0494H185.348C185.951 30.0494 186.237 30.0178 186.502 29.9024C187.094 29.6615 187.57 29.1793 187.57 28.4664C187.57 27.7642 187.115 27.2614 186.502 27.0201C186.248 26.9048 185.962 26.8629 185.338 26.8629H181.508V30.0494ZM208.541 31.4747C208.541 35.6984 205.261 38.9895 200.808 38.9895C196.365 38.9895 193.086 35.6984 193.086 31.4747C193.086 27.2614 196.365 23.9597 200.808 23.9597C205.261 23.9597 208.541 27.2614 208.541 31.4747ZM205.293 31.4747C205.293 28.8858 203.537 26.842 200.808 26.842C198.089 26.842 196.333 28.8858 196.333 31.4747C196.333 34.0739 198.089 36.0969 200.808 36.0969C203.537 36.0969 205.293 34.0739 205.293 31.4747ZM211.158 23.9597H214.321V32.1663C214.321 32.6485 214.385 33.1201 214.511 33.5708C214.914 34.9752 215.961 36.0969 217.717 36.0969C219.494 36.0969 220.541 34.9752 220.933 33.5708C221.059 33.1201 221.123 32.6485 221.123 32.1663V23.9597H224.286V32.1138C224.286 32.7741 224.201 33.4242 224.064 34.0321C223.355 36.9456 221.028 39.0001 217.727 39.0001C214.427 39.0001 212.089 36.9456 211.38 34.0321C211.232 33.4242 211.158 32.7741 211.158 32.1138V23.9597ZM230.807 30.0596H234.657C235.26 30.0596 235.546 30.0178 235.81 29.9131C236.403 29.6718 236.879 29.1896 236.879 28.4664C236.879 27.7642 236.424 27.2614 235.81 27.0201C235.556 26.9154 235.271 26.8629 234.647 26.8629H230.807V30.0596ZM230.807 38.9895H227.644V23.9702H235.07C236.36 23.9702 237.249 24.2112 237.979 24.6725C239.206 25.4269 239.999 26.7582 239.999 28.4664C239.999 30.1122 239.206 31.4641 237.958 32.2398C237.239 32.6904 236.36 32.942 235.07 32.942H230.807V38.9895Z" fill="#BECBB7"/>
</g>
</g>
</svg>
