<svg width="0" height="0" class="hidden">
  <symbol fill="none" xmlns="http://www.w3.org/2000/svg" viewBox="0 0 40 40" id="ic_arrow_hor">
    <path d="M19.9999 36.6663C29.2047 36.6663 36.6666 29.2044 36.6666 19.9997C36.6666 10.7949 29.2047 3.33301 19.9999 3.33301C10.7952 3.33301 3.33325 10.7949 3.33325 19.9997C3.33325 29.2044 10.7952 36.6663 19.9999 36.6663Z" stroke="currentColor" stroke-width="2" stroke-linecap="round" stroke-linejoin="round"></path>
    <path d="M20 26.6663L26.6667 19.9997L20 13.333" stroke="currentColor" stroke-width="2" stroke-linecap="round" stroke-linejoin="round"></path>
    <path d="M13.3333 20H26.6666" stroke="currentColor" stroke-width="2" stroke-linecap="round" stroke-linejoin="round"></path>
  </symbol>
  <symbol fill="none" xmlns="http://www.w3.org/2000/svg" viewBox="0 0 16 16" id="ic_arrow_hor2">
    <path d="M1 8H12.6667" stroke="currentColor" stroke-width="1.5" stroke-linecap="round" stroke-linejoin="round"></path>
    <path d="M6.83301 2.16699L12.6663 8.00033L6.83301 13.8337" stroke="currentColor" stroke-width="1.5" stroke-linecap="round" stroke-linejoin="round"></path>
  </symbol>
  <symbol fill="none" xmlns="http://www.w3.org/2000/svg" viewBox="0 0 48 48" id="ic_buttonUp">
    <path d="M44 24C44 12.9543 35.0457 4 24 4C12.9543 4 4 12.9543 4 24C4 35.0457 12.9543 44 24 44C35.0457 44 44 35.0457 44 24Z" stroke="currentColor" stroke-width="2" stroke-linecap="round" stroke-linejoin="round"></path>
    <path d="M32 24L24 16L16 24" stroke="currentColor" stroke-width="2" stroke-linecap="round" stroke-linejoin="round"></path>
    <path d="M24 32L24 16" stroke="currentColor" stroke-width="2" stroke-linecap="round" stroke-linejoin="round"></path>
  </symbol>
  <symbol fill="none" xmlns="http://www.w3.org/2000/svg" viewBox="0 0 16 15" id="ic_check">
    <path d="M0 7.34068C2.40119 9.86113 4.72936 12.1302 6.96734 15C9.4005 10.3052 11.8909 5.59398 16 0.492012L14.8928 0C11.4231 3.56978 8.72743 6.94889 6.38513 10.9647C4.75628 9.54118 2.12389 7.52677 0.516585 6.49182L0 7.34068Z" fill="currentColor"></path>
  </symbol>
  <symbol fill="none" xmlns="http://www.w3.org/2000/svg" viewBox="0 0 21 18" id="ic_check2">
    <path d="M7 8.07097L10 10.7226L20 1.88379" stroke="currentColor" stroke-linecap="round" stroke-linejoin="round"></path>
    <path d="M19 8.95495V15.1421C19 15.611 18.7893 16.0606 18.4142 16.3921C18.0391 16.7236 17.5304 16.9099 17 16.9099H3C2.46957 16.9099 1.96086 16.7236 1.58579 16.3921C1.21071 16.0606 1 15.611 1 15.1421V2.76777C1 2.29893 1.21071 1.84929 1.58579 1.51777C1.96086 1.18625 2.46957 1 3 1H14" stroke="currentColor" stroke-linecap="round" stroke-linejoin="round"></path>
  </symbol>
  <symbol fill="none" xmlns="http://www.w3.org/2000/svg" viewBox="0 0 40 40" id="ic_close">
    <path d="M20.0002 36.6666C29.2049 36.6666 36.6668 29.2047 36.6668 19.9999C36.6668 10.7952 29.2049 3.33325 20.0002 3.33325C10.7954 3.33325 3.3335 10.7952 3.3335 19.9999C3.3335 29.2047 10.7954 36.6666 20.0002 36.6666Z" stroke="currentColor" stroke-width="2" stroke-linecap="round" stroke-linejoin="round"></path>
    <path d="M25 15L15 25" stroke="currentColor" stroke-width="2" stroke-linecap="round" stroke-linejoin="round"></path>
    <path d="M15 15L25 25" stroke="currentColor" stroke-width="2" stroke-linecap="round" stroke-linejoin="round"></path>
  </symbol>
  <symbol fill="none" xmlns="http://www.w3.org/2000/svg" viewBox="0 0 24 24" id="ic_delete">
    <path d="M12 22C17.5228 22 22 17.5228 22 12C22 6.47715 17.5228 2 12 2C6.47715 2 2 6.47715 2 12C2 17.5228 6.47715 22 12 22Z" stroke="currentColor" stroke-linecap="round" stroke-linejoin="round"></path>
    <path d="M15 9L9 15" stroke="currentColor" stroke-linecap="round" stroke-linejoin="round"></path>
    <path d="M9 9L15 15" stroke="currentColor" stroke-linecap="round" stroke-linejoin="round"></path>
  </symbol>
  <symbol fill="none" xmlns="http://www.w3.org/2000/svg" viewBox="0 0 32 32" id="ic_delete2">
    <path d="M16.0003 29.3333C23.3641 29.3333 29.3337 23.3638 29.3337 16C29.3337 8.63616 23.3641 2.66663 16.0003 2.66663C8.63653 2.66663 2.66699 8.63616 2.66699 16C2.66699 23.3638 8.63653 29.3333 16.0003 29.3333Z" stroke="currentColor" stroke-linecap="round" stroke-linejoin="round"></path>
    <path d="M20.0005 11.9999L12.0005 19.9999" stroke="currentColor" stroke-linecap="round" stroke-linejoin="round"></path>
    <path d="M12.0005 11.9999L20.0005 19.9999" stroke="currentColor" stroke-linecap="round" stroke-linejoin="round"></path>
  </symbol>
  <symbol fill="none" xmlns="http://www.w3.org/2000/svg" viewBox="0 0 24 24" id="ic_delete3">
    <path d="M11.9999 21.9999C17.5227 21.9999 21.9999 17.5227 21.9999 11.9999C21.9999 6.47703 17.5227 1.99988 11.9999 1.99988C6.47703 1.99988 1.99988 6.47703 1.99988 11.9999C1.99988 17.5227 6.47703 21.9999 11.9999 21.9999Z" fill="currentColor"></path>
    <path d="M15 9L9 15" stroke="white" stroke-width="2" stroke-linecap="round" stroke-linejoin="round"></path>
    <path d="M9 9L15 15" stroke="white" stroke-width="2" stroke-linecap="round" stroke-linejoin="round"></path>
  </symbol>
  <symbol fill="none" xmlns="http://www.w3.org/2000/svg" viewBox="0 0 24 24" id="ic_location">
    <path d="M20 10C20 16 12 22 12 22C12 22 4 16 4 10C4 7.87827 4.84285 5.84344 6.34315 4.34315C7.84344 2.84285 9.87827 2 12 2C14.1217 2 16.1566 2.84285 17.6569 4.34315C19.1571 5.84344 20 7.87827 20 10V10Z" stroke="currentColor" stroke-linecap="round" stroke-linejoin="round"></path>
    <path d="M12 13C13.6569 13 15 11.6569 15 10C15 8.34315 13.6569 7 12 7C10.3431 7 9 8.34315 9 10C9 11.6569 10.3431 13 12 13Z" stroke="currentColor" stroke-linecap="round" stroke-linejoin="round"></path>
  </symbol>
  <symbol fill="none" xmlns="http://www.w3.org/2000/svg" viewBox="0 0 24 24" id="ic_search">
    <path d="M11 19C15.4183 19 19 15.4183 19 11C19 6.58172 15.4183 3 11 3C6.58172 3 3 6.58172 3 11C3 15.4183 6.58172 19 11 19Z" stroke="currentColor" stroke-linecap="round" stroke-linejoin="round"></path>
    <path d="M21.0004 21.0004L16.6504 16.6504" stroke="currentColor" stroke-linecap="round" stroke-linejoin="round"></path>
  </symbol>
  <symbol fill="none" xmlns="http://www.w3.org/2000/svg" viewBox="0 0 48 48" id="ic_telegram">
    <rect width="48" height="48" rx="24" fill="currentColor"></rect>
    <path d="M33.5998 15.1231L29.9933 33.9511C29.9933 33.9511 29.4887 35.2565 28.1025 34.6305L19.7813 28.0235L19.7427 28.004C20.8667 26.9589 29.5827 18.8436 29.9636 18.4757C30.5533 17.906 30.1872 17.5669 29.5025 17.9972L16.628 26.464L11.661 24.7333C11.661 24.7333 10.8793 24.4454 10.8041 23.8193C10.7279 23.1922 11.6867 22.8531 11.6867 22.8531L31.9356 14.6271C31.9356 14.6271 33.5998 13.8699 33.5998 15.1231Z" fill="#EBEFE9"></path>
  </symbol>
  <symbol fill="none" xmlns="http://www.w3.org/2000/svg" viewBox="0 0 48 48" id="ic_viber">
    <rect width="48" height="48" rx="24" fill="currentColor"></rect>
    <path d="M31.5047 11.4549C26.9309 10.5814 22.1812 10.5814 17.6073 11.4549C15.5843 11.8916 13.0335 14.3373 12.5937 16.2589C11.8021 20.0148 11.8021 23.8581 12.5937 27.6139C13.1215 29.5356 15.6722 31.9813 17.6073 32.418C17.6953 32.418 17.7832 32.5053 17.7832 32.5927V38.0955C17.7832 38.3575 18.1351 38.5322 18.311 38.2702L20.9497 35.5625C20.9497 35.5625 23.0607 33.3788 23.4126 33.0294C23.4126 33.0294 23.5005 32.9421 23.5885 32.9421C26.2272 33.0294 28.9539 32.7674 31.5927 32.3306C33.6157 31.8939 36.1665 29.4482 36.6063 27.5266C37.3979 23.7707 37.3979 19.9275 36.6063 16.1716C36.0785 14.3373 33.5278 11.8916 31.5047 11.4549ZM31.5927 27.876C31.1529 28.7495 30.6251 29.4482 29.7456 29.885C29.4817 29.9723 29.2178 30.0596 28.9539 30.147C28.6021 30.0596 28.3382 29.9723 28.0743 29.885C25.2597 28.7494 22.6209 27.1772 20.5099 24.9062C19.3665 23.596 18.399 22.1111 17.6073 20.5389C17.2555 19.7528 16.9037 19.054 16.6398 18.2679C16.3759 17.5691 16.8157 16.8704 17.2555 16.3463C17.6953 15.8222 18.223 15.4728 18.8387 15.2108C19.2785 14.9487 19.7183 15.1234 20.0702 15.4728C20.7738 16.3463 21.4775 17.2197 22.0052 18.1806C22.3571 18.792 22.2691 19.4908 21.6534 19.9275C21.4775 20.0148 21.3895 20.1022 21.2136 20.2769C21.1257 20.3642 20.9497 20.4516 20.8618 20.6263C20.6859 20.8883 20.6859 21.1503 20.7738 21.4124C21.4775 23.4213 22.7969 24.9936 24.8199 25.867C25.1717 26.0417 25.4356 26.1291 25.8754 26.1291C26.4911 26.0417 26.755 25.3429 27.1948 24.9936C27.6346 24.6442 28.1623 24.6442 28.6901 24.9062C29.1298 25.1683 29.5696 25.5176 30.0974 25.867C30.5372 26.2164 30.977 26.4784 31.4168 26.8278C31.6806 27.0025 31.7686 27.4393 31.5927 27.876ZM27.8984 21.325C27.7225 21.325 27.8105 21.325 27.8984 21.325C27.5466 21.325 27.4586 21.1503 27.3707 20.8883C27.3707 20.7136 27.3707 20.4516 27.2827 20.2769C27.1948 19.9275 27.0189 19.5781 26.667 19.3161C26.4911 19.2287 26.3152 19.1414 26.1393 19.054C25.8754 18.9667 25.6995 18.9667 25.4356 18.9667C25.1717 18.8793 25.0838 18.7046 25.0838 18.4426C25.0838 18.2679 25.3476 18.0932 25.5236 18.0932C26.9309 18.1806 27.9864 18.9667 28.1623 20.6263C28.1623 20.7136 28.1623 20.8883 28.1623 20.9756C28.1623 21.1503 28.0743 21.325 27.8984 21.325ZM27.0188 17.4818C26.5791 17.3071 26.1393 17.1324 25.6115 17.0451C25.4356 17.0451 25.1717 16.9577 24.9958 16.9577C24.7319 16.9577 24.556 16.783 24.644 16.521C24.644 16.2589 24.8199 16.0842 25.0838 16.1716C25.9634 16.2589 26.755 16.4336 27.5466 16.783C29.1298 17.5691 30.0094 18.8793 30.2733 20.6263C30.2733 20.7136 30.2733 20.8009 30.2733 20.8883C30.2733 21.063 30.2733 21.2377 30.2733 21.4997C30.2733 21.5871 30.2733 21.6744 30.2733 21.7618C30.1853 22.1111 29.5696 22.1985 29.4817 21.7618C29.4817 21.6744 29.3937 21.4997 29.3937 21.4124C29.3937 20.6263 29.2178 19.8401 28.866 19.1414C28.3382 18.3553 27.7225 17.8312 27.0188 17.4818ZM31.7686 22.7226C31.5047 22.7226 31.3288 22.4605 31.3288 22.1985C31.3288 21.6744 31.2408 21.1503 31.1529 20.6263C30.801 17.8312 28.5141 15.5602 25.7874 15.1234C25.3476 15.0361 24.9079 15.0361 24.556 14.9487C24.2921 14.9487 23.9403 14.9487 23.8524 14.5994C23.7644 14.3373 24.0283 14.0753 24.2921 14.0753C24.3801 14.0753 24.4681 14.0753 24.4681 14.0753C24.644 14.0753 28.0743 14.1626 24.4681 14.0753C28.1623 14.1626 31.2408 16.6083 31.8565 20.2769C31.9445 20.8883 32.0325 21.4997 32.0325 22.1985C32.2084 22.4605 32.0325 22.7226 31.7686 22.7226Z" fill="#EBEFE9"></path>
  </symbol>
  <symbol fill="none" xmlns="http://www.w3.org/2000/svg" viewBox="0 0 48 48" id="ic_whatsapp">
    <rect width="48" height="48" rx="24" fill="currentColor"></rect>
    <path d="M33.5122 14.4748C31.1415 12.1123 27.9805 10.7998 24.6439 10.7998C17.7073 10.7998 12.0878 16.3998 12.0878 23.3123C12.0878 25.4998 12.7024 27.6873 13.7561 29.5248L12 35.9998L18.6732 34.2498C20.5171 35.2123 22.5366 35.7373 24.6439 35.7373C31.5805 35.7373 37.2 30.1373 37.2 23.2248C37.1122 19.9873 35.8829 16.8373 33.5122 14.4748ZM30.7024 27.7748C30.439 28.4748 29.2098 29.1748 28.5951 29.2623C28.0683 29.3498 27.3659 29.3498 26.6634 29.1748C26.2244 28.9998 25.6098 28.8248 24.9073 28.4748C21.7463 27.1623 19.7268 24.0123 19.5512 23.7498C19.3756 23.5748 18.2341 22.0873 18.2341 20.5123C18.2341 18.9373 19.0244 18.2373 19.2878 17.8873C19.5512 17.5373 19.9024 17.5373 20.1659 17.5373C20.3415 17.5373 20.6049 17.5373 20.7805 17.5373C20.9561 17.5373 21.2195 17.4498 21.4829 18.0623C21.7463 18.6748 22.361 20.2498 22.4488 20.3373C22.5366 20.5123 22.5366 20.6873 22.4488 20.8623C22.361 21.0373 22.2732 21.2123 22.0976 21.3873C21.9219 21.5623 21.7463 21.8248 21.6585 21.9123C21.4829 22.0873 21.3073 22.2623 21.4829 22.5248C21.6585 22.8748 22.2732 23.8373 23.239 24.7123C24.4683 25.7623 25.4341 26.1123 25.7854 26.2873C26.1366 26.4623 26.3122 26.3748 26.4878 26.1998C26.6634 26.0248 27.2781 25.3248 27.4537 24.9748C27.6293 24.6248 27.8927 24.7123 28.1561 24.7998C28.4195 24.8873 30 25.6748 30.2634 25.8498C30.6146 26.0248 30.7902 26.1123 30.878 26.1998C30.9659 26.4623 30.9659 27.0748 30.7024 27.7748Z" fill="#EBEFE9"></path>
  </symbol>
</svg>